<mxfile host="65bd71144e">
    <diagram id="xLJEkYVtr7j9n7KCi0KX" name="Page-1">
        <mxGraphModel dx="532" dy="357" grid="1" gridSize="10" guides="1" tooltips="1" connect="1" arrows="1" fold="1" page="1" pageScale="1" pageWidth="850" pageHeight="1100" math="0" shadow="0">
            <root>
                <mxCell id="0"/>
                <mxCell id="1" parent="0"/>
                <mxCell id="21" style="edgeStyle=none;html=1;entryX=0.5;entryY=0;entryDx=0;entryDy=0;" edge="1" parent="1" source="2" target="4">
                    <mxGeometry relative="1" as="geometry"/>
                </mxCell>
                <mxCell id="2" value="SPA" style="rounded=0;whiteSpace=wrap;html=1;fillColor=#FF6666;" vertex="1" parent="1">
                    <mxGeometry x="105" y="90" width="100" height="70" as="geometry"/>
                </mxCell>
                <mxCell id="26" style="edgeStyle=none;html=1;entryX=0.5;entryY=0;entryDx=0;entryDy=0;" edge="1" parent="1" source="3" target="5">
                    <mxGeometry relative="1" as="geometry"/>
                </mxCell>
                <mxCell id="3" value="Simple Website" style="rounded=0;whiteSpace=wrap;html=1;fillColor=#FF6666;" vertex="1" parent="1">
                    <mxGeometry x="550" y="120" width="100" height="70" as="geometry"/>
                </mxCell>
                <mxCell id="23" style="edgeStyle=none;html=1;entryX=0.5;entryY=0;entryDx=0;entryDy=0;" edge="1" parent="1" source="4" target="9">
                    <mxGeometry relative="1" as="geometry"/>
                </mxCell>
                <mxCell id="4" value="index.html" style="rounded=0;whiteSpace=wrap;html=1;fillColor=#9933FF;" vertex="1" parent="1">
                    <mxGeometry x="110" y="190" width="90" height="20" as="geometry"/>
                </mxCell>
                <mxCell id="27" style="edgeStyle=none;html=1;entryX=0.5;entryY=0;entryDx=0;entryDy=0;" edge="1" parent="1" source="5" target="7">
                    <mxGeometry relative="1" as="geometry"/>
                </mxCell>
                <mxCell id="28" style="edgeStyle=none;html=1;entryX=0.5;entryY=0;entryDx=0;entryDy=0;" edge="1" parent="1" source="5" target="8">
                    <mxGeometry relative="1" as="geometry"/>
                </mxCell>
                <mxCell id="5" value="index.html" style="rounded=0;whiteSpace=wrap;html=1;fillColor=#9933FF;" vertex="1" parent="1">
                    <mxGeometry x="555" y="230" width="90" height="20" as="geometry"/>
                </mxCell>
                <mxCell id="7" value="dashboard.html" style="rounded=0;whiteSpace=wrap;html=1;" vertex="1" parent="1">
                    <mxGeometry x="490" y="290" width="90" height="20" as="geometry"/>
                </mxCell>
                <mxCell id="8" value="contact.html" style="rounded=0;whiteSpace=wrap;html=1;" vertex="1" parent="1">
                    <mxGeometry x="620" y="290" width="90" height="20" as="geometry"/>
                </mxCell>
                <mxCell id="24" style="edgeStyle=none;html=1;entryX=0.5;entryY=0;entryDx=0;entryDy=0;" edge="1" parent="1" source="9" target="12">
                    <mxGeometry relative="1" as="geometry"/>
                </mxCell>
                <mxCell id="25" style="edgeStyle=none;html=1;entryX=0.5;entryY=0;entryDx=0;entryDy=0;" edge="1" parent="1" source="9" target="18">
                    <mxGeometry relative="1" as="geometry"/>
                </mxCell>
                <mxCell id="9" value="app.js" style="rounded=0;whiteSpace=wrap;html=1;" vertex="1" parent="1">
                    <mxGeometry x="110" y="240" width="90" height="20" as="geometry"/>
                </mxCell>
                <mxCell id="10" value="" style="rounded=0;whiteSpace=wrap;html=1;fillColor=#009900;" vertex="1" parent="1">
                    <mxGeometry x="40" y="300" width="90" height="90" as="geometry"/>
                </mxCell>
                <mxCell id="12" value="index.html" style="text;html=1;strokeColor=none;fillColor=none;align=center;verticalAlign=middle;whiteSpace=wrap;rounded=0;" vertex="1" parent="1">
                    <mxGeometry x="55" y="300" width="60" height="30" as="geometry"/>
                </mxCell>
                <mxCell id="13" value="Dashboard Component" style="text;html=1;strokeColor=none;fillColor=none;align=center;verticalAlign=middle;whiteSpace=wrap;rounded=0;" vertex="1" parent="1">
                    <mxGeometry x="55" y="350" width="60" height="30" as="geometry"/>
                </mxCell>
                <mxCell id="17" value="" style="rounded=0;whiteSpace=wrap;html=1;fillColor=#009900;" vertex="1" parent="1">
                    <mxGeometry x="200" y="300" width="90" height="90" as="geometry"/>
                </mxCell>
                <mxCell id="18" value="index.html" style="text;html=1;strokeColor=none;fillColor=none;align=center;verticalAlign=middle;whiteSpace=wrap;rounded=0;" vertex="1" parent="1">
                    <mxGeometry x="215" y="300" width="60" height="30" as="geometry"/>
                </mxCell>
                <mxCell id="19" value="Contact Component" style="text;html=1;strokeColor=none;fillColor=none;align=center;verticalAlign=middle;whiteSpace=wrap;rounded=0;" vertex="1" parent="1">
                    <mxGeometry x="215" y="350" width="60" height="30" as="geometry"/>
                </mxCell>
                <mxCell id="29" value="ROUTER" style="text;html=1;strokeColor=none;fillColor=none;align=center;verticalAlign=middle;whiteSpace=wrap;rounded=0;" vertex="1" parent="1">
                    <mxGeometry x="200" y="235" width="60" height="30" as="geometry"/>
                </mxCell>
            </root>
        </mxGraphModel>
    </diagram>
</mxfile>